# xmcd
#
# Track frame offsets: 
#        150
#        36909
#        64122
#        100509
#        132381
#        147715
#        171615
#        200678
#
# Disc length: 2956 seconds
#
# Revision: 3
# Processed by: cddbd v1.5.1PL2 Copyright (c) Steve Scherf et al.
# Submitted via: ExactAudioCopy v0.95b4
#
DISCID=7e0b8a08
DTITLE=Паоло Роберто Аредес - Тихая звездная ночь
DYEAR=2003
DGENRE=Relax
TTITLE0=Хорал
TTITLE1=Ангел
TTITLE2=Маятник
TTITLE3=Благодарность
TTITLE4=Северное сияние
TTITLE5=Лунная ночь
TTITLE6=Галактика
TTITLE7=Сон
EXTD=
EXTT0=
EXTT1=
EXTT2=
EXTT3=
EXTT4=
EXTT5=
EXTT6=
EXTT7=
PLAYORDER=
